<svg width="41" height="41" viewBox="0 0 41 41" fill="none" xmlns="http://www.w3.org/2000/svg">
<g clip-path="url(#clip0)">
<path d="M20.7999 1.0043L23.3132 0.054576C23.5936 -0.051367 23.9091 -0.00139839 24.1429 0.185984L26.2396 1.86594C26.4007 1.99502 26.6034 2.06093 26.8096 2.05116L29.4934 1.92455C29.7928 1.91046 30.0773 2.05548 30.2419 2.30596L31.7169 4.55159C31.8302 4.72415 32.0026 4.8494 32.2018 4.90385L34.7933 5.6127C35.0824 5.69181 35.3082 5.91755 35.3873 6.20664L36.0961 8.79819C36.1506 8.99735 36.2758 9.16975 36.4484 9.28307L38.694 10.7581C38.9445 10.9227 39.0895 11.2072 39.0754 11.5066L38.9488 14.1904C38.9391 14.3967 39.0049 14.5993 39.134 14.7604L40.814 16.8572C41.0014 17.0911 41.0513 17.4066 40.9454 17.6869L39.9957 20.2002C39.9227 20.3933 39.9227 20.6064 39.9957 20.7995L40.9454 23.3129C41.0513 23.5932 41.0014 23.9087 40.814 24.1425L39.134 26.2394C39.0049 26.4005 38.939 26.6032 38.9488 26.8094L39.0754 29.4932C39.0895 29.7926 38.9445 30.0771 38.694 30.2417L36.4484 31.7167C36.2758 31.83 36.1506 32.0024 36.0961 32.2016L35.3873 34.7931C35.3082 35.0822 35.0824 35.308 34.7933 35.3871L32.2018 36.0959C32.0026 36.1504 31.8302 36.2756 31.7169 36.4482L30.2419 38.6938C30.0773 38.9443 29.7928 39.0893 29.4934 39.0752L26.8096 38.9486C26.6035 38.9389 26.4007 39.0048 26.2396 39.1338L24.1427 40.8138C23.9088 41.0012 23.5934 41.0511 23.3131 40.9452L20.7997 39.9955C20.6067 39.9225 20.3936 39.9225 20.2004 39.9955L17.6871 40.9452C17.4068 41.0511 17.0913 41.0012 16.8574 40.8138L14.7606 39.1338C14.5995 39.0048 14.3968 38.9388 14.1906 38.9486L11.5068 39.0752C11.2074 39.0893 10.9229 38.9443 10.7583 38.6938L9.28327 36.4482C9.16996 36.2756 8.99755 36.1504 8.7984 36.0959L6.20684 35.3871C5.91776 35.308 5.69194 35.0822 5.61291 34.7931L4.90406 32.2016C4.8496 32.0024 4.72436 31.83 4.5518 31.7167L2.30617 30.2416C2.05569 30.077 1.91067 29.7925 1.92476 29.4931L2.05137 26.8093C2.06114 26.6031 1.99523 26.4004 1.86615 26.2393L0.186514 24.1423C-0.000868127 23.9084 -0.0508367 23.593 0.0551062 23.3126L1.00483 20.7993C1.07778 20.6062 1.07778 20.3931 1.00483 20.2L0.0551062 17.6867C-0.0508367 17.4063 -0.000868127 17.0908 0.186514 16.857L1.86647 14.7603C1.99555 14.5992 2.06146 14.3965 2.05169 14.1903L1.92508 11.5065C1.91099 11.2071 2.05601 10.9226 2.30649 10.758L4.55211 9.28299C4.72468 9.16967 4.84992 8.99727 4.90438 8.79811L5.61323 6.20656C5.69234 5.91747 5.91808 5.69166 6.20716 5.61262L8.79872 4.90377C8.99787 4.84932 9.17028 4.72407 9.28359 4.55151L10.7586 2.30588C10.9232 2.0554 11.2077 1.91038 11.5071 1.92447L14.1909 2.05108C14.3971 2.06085 14.5998 1.99494 14.7609 1.86586L16.8577 0.185904C17.0917 -0.00147848 17.4071 -0.051447 17.6874 0.0544959L20.2008 1.00422C20.3937 1.07725 20.6068 1.07725 20.7999 1.0043Z" fill="#FFC850"/>
<path d="M26.898 35.4289C15.1195 35.4289 5.57098 25.8804 5.57098 14.1018C5.57098 10.9473 6.26133 7.95578 7.49052 5.26172L6.2068 5.61294C5.91772 5.69206 5.6919 5.9178 5.61286 6.20688L4.90393 8.79844C4.84948 8.99759 4.72424 9.17 4.55167 9.28339L2.30597 10.7584C2.05548 10.923 1.91046 11.2075 1.92456 11.5068L2.05116 14.1906C2.06085 14.3968 1.99502 14.5995 1.86594 14.7606L0.186148 16.8575C-0.00123434 17.0914 -0.0512029 17.4068 0.05474 17.6871L1.00446 20.2004C1.07741 20.3935 1.07741 20.6066 1.00446 20.7997L0.05474 23.313C-0.0512029 23.5934 -0.00123434 23.9089 0.186148 24.1427L1.8661 26.2396C1.99519 26.4007 2.06109 26.6033 2.05132 26.8095L1.92472 29.4934C1.91062 29.7928 2.05564 30.0773 2.30613 30.2418L4.55175 31.7169C4.72424 31.8302 4.84956 32.0026 4.90401 32.2017L5.61294 34.7933C5.69206 35.0824 5.9178 35.3082 6.20688 35.3873L8.79844 36.0963C8.99759 36.1507 9.17 36.2759 9.28331 36.4485L10.7583 38.6941C10.9229 38.9446 11.2074 39.0896 11.5068 39.0755L14.1906 38.9489C14.3968 38.9393 14.5995 39.0051 14.7606 39.1342L16.8575 40.8141C17.0914 41.0014 17.4068 41.0515 17.6871 40.9455L20.2004 39.9957C20.3935 39.9228 20.6065 39.9228 20.7997 39.9957L23.313 40.9455C23.5934 41.0515 23.9089 41.0015 24.1426 40.8141L26.2395 39.1342C26.4006 39.0052 26.6033 38.9393 26.8095 38.9489L29.4933 39.0755C29.7927 39.0896 30.0772 38.9446 30.2417 38.6941L31.7168 36.4485C31.8301 36.276 32.0025 36.1507 32.2017 36.0963L34.7932 35.3873C35.0823 35.3082 35.3081 35.0825 35.3871 34.7933L35.7384 33.5096C33.0442 34.7386 30.0525 35.4289 26.898 35.4289Z" fill="#E1A546"/>
<path d="M20.4997 36.8503C29.53 36.8503 36.8504 29.5299 36.8504 20.4996C36.8504 11.4694 29.53 4.14893 20.4997 4.14893C11.4695 4.14893 4.14905 11.4694 4.14905 20.4996C4.14905 29.5299 11.4695 36.8503 20.4997 36.8503Z" fill="#FFDC64"/>
<path d="M28.3613 32.1663C28.2206 31.9787 28.0014 31.8692 27.767 31.8615C18.9932 31.5697 11.9692 24.3685 11.9692 15.5237C11.9692 13.1584 12.4772 10.9148 13.3842 8.88753C13.6713 8.24579 12.9542 7.60757 12.365 7.99114C7.85852 10.925 5.03217 16.2199 5.6575 22.1271C6.36298 28.7911 11.5864 34.2536 18.2123 35.2554C21.8695 35.8083 25.2975 35.0067 28.1288 33.3067C28.5282 33.0669 28.6408 32.5391 28.3613 32.1663Z" fill="#FFC850"/>
<path d="M15.5237 29.0307H11.2583C10.8657 29.0307 10.5474 28.7123 10.5474 28.3197V16.9453C10.5474 16.5527 10.8657 16.2344 11.2583 16.2344H15.5237C15.9163 16.2344 16.2346 16.5527 16.2346 16.9453V28.3197C16.2346 28.7124 15.9163 29.0307 15.5237 29.0307Z" fill="white"/>
<path d="M31.1579 17.8284C31.0654 16.9035 30.2181 16.2345 29.2885 16.2345H23.237C24.8919 14.8947 26.0156 13.0974 26.1782 11.6194C26.2988 10.5233 25.541 9.48225 24.4384 9.472C23.4496 9.46287 22.6449 10.2536 22.6449 11.2401C22.6449 11.8802 21.2557 13.7796 18.6522 14.6248C18.6483 14.626 18.6447 14.6273 18.6408 14.6285C18.0318 14.83 17.6565 15.446 17.6565 16.0874V27.6088C17.6565 28.0014 17.9748 28.3198 18.3674 28.3198H27.5367C28.2449 28.3198 28.9014 27.8357 29.0151 27.1366C29.16 26.2458 28.4763 25.4761 27.6128 25.4761H28.2477C28.956 25.4761 29.6124 24.992 29.7261 24.293C29.871 23.4022 29.1873 22.6325 28.3238 22.6325H28.9588C29.667 22.6325 30.3234 22.1484 30.4372 21.4493C30.582 20.5585 29.8983 19.7888 29.0348 19.7888H29.3903C30.4319 19.7891 31.2644 18.8924 31.1579 17.8284Z" fill="white"/>
<path d="M26.8982 24.0542C26.5056 24.0542 26.1873 24.3725 26.1873 24.7651C26.1873 25.1578 26.5056 25.4761 26.8982 25.4761H27.6126H28.2476C28.9558 25.4761 29.6123 24.992 29.726 24.2929C29.7391 24.2116 29.7383 24.133 29.7382 24.0542H26.8982Z" fill="#FFFAB4"/>
<path d="M26.8982 21.2107C26.5056 21.2107 26.1873 21.529 26.1873 21.9216C26.1873 22.3142 26.5056 22.6326 26.8982 22.6326H28.3236H28.9585C29.6667 22.6326 30.3232 22.1485 30.4369 21.4494C30.45 21.3681 30.4492 21.2895 30.4492 21.2107H26.8982Z" fill="#FFFAB4"/>
<path d="M26.8982 18.3672C26.5056 18.3672 26.1873 18.6855 26.1873 19.0781C26.1873 19.4707 26.5056 19.789 26.8982 19.789H29.0344H29.3899C30.2486 19.789 30.9558 19.1768 31.1218 18.3673H26.8982V18.3672Z" fill="#FFFAB4"/>
<path d="M20.5001 26.898C19.7148 26.898 19.0783 26.2614 19.0783 25.4762V16.7163C19.0783 16.4312 19.2489 16.1762 19.5104 16.0625C20.6741 15.5562 24.3358 13.6071 24.7214 9.77975C24.6048 9.65771 24.5437 9.59397 24.4272 9.47193C23.4436 9.46881 22.6449 10.2572 22.6449 11.2401C22.6449 11.8802 21.2557 13.7796 18.6522 14.6248C18.0582 14.8198 17.6565 15.3743 17.6565 15.9996V27.6089C17.6565 28.0015 17.9748 28.3198 18.3674 28.3198H27.5367C28.3215 28.3198 29.0426 27.7256 29.0323 26.9031C29.0304 26.9012 29.0291 26.9 29.0273 26.8981H20.5001V26.898Z" fill="#FFFAB4"/>
<path d="M13.391 27.6088C12.6058 27.6088 11.9692 26.9722 11.9692 26.187V16.2344H11.2583C10.8657 16.2344 10.5474 16.5527 10.5474 16.9453V28.3197C10.5474 28.7123 10.8657 29.0306 11.2583 29.0306H15.5237C15.9163 29.0306 16.2346 28.7123 16.2346 28.3197V27.6088H13.391Z" fill="#FFFAB4"/>
<path d="M13.3908 27.2532C13.9797 27.2532 14.4571 26.7758 14.4571 26.1869C14.4571 25.598 13.9797 25.1206 13.3908 25.1206C12.8019 25.1206 12.3245 25.598 12.3245 26.1869C12.3245 26.7758 12.8019 27.2532 13.3908 27.2532Z" fill="#FFDC64"/>
</g>
<defs>
<clipPath id="clip0">
<rect width="41" height="41" fill="white"/>
</clipPath>
</defs>
</svg>
