<svg width="700" height="700" viewBox="0 0 700 700" fill="none" xmlns="http://www.w3.org/2000/svg">
<path d="M629.512 349.999C670.402 335.079 696.36 300.355 697.599 298.67C699.604 295.946 700.401 292.536 699.807 289.221C699.214 285.906 697.281 282.972 694.453 281.086C692.703 279.921 656.261 256.041 612.657 255.796C645.897 227.992 658.239 186.617 658.819 184.616C659.758 181.38 659.324 177.906 657.615 174.992C655.908 172.078 653.072 169.97 649.758 169.152C647.708 168.646 605.18 158.491 564.127 172.946C585.707 135.622 582.943 92.5866 582.792 90.5112C582.552 87.1525 580.937 84.035 578.32 81.8719C575.702 79.7088 572.307 78.6828 568.909 79.0336C566.807 79.2484 523.313 84.0438 489.755 111.468C497.078 69.1228 479.544 29.6067 478.682 27.7067C477.291 24.633 474.694 22.2478 471.483 21.0961C468.273 19.9458 464.726 20.1256 461.655 21.5989C459.755 22.5094 420.543 41.666 398.532 78.7413C390.715 36.4819 360.522 5.27767 359.053 3.78397C356.683 1.36509 353.414 0 350 0C346.585 0 343.316 1.36509 340.941 3.7825C339.473 5.27621 309.278 36.4833 301.463 78.7457C279.446 41.6675 240.242 22.5079 238.343 21.5989C235.271 20.1256 231.725 19.9458 228.517 21.0946C225.307 22.2463 222.708 24.6301 221.315 27.7038C220.455 29.6038 202.91 69.1155 210.238 111.464C176.683 84.0423 133.189 79.2484 131.089 79.0321C127.694 78.6814 124.296 79.7074 121.678 81.8705C119.06 84.0336 117.446 87.1511 117.206 90.5097C117.056 92.5837 114.293 135.616 135.874 172.944C94.8219 158.488 52.2896 168.646 50.2412 169.15C46.9291 169.967 44.0931 172.075 42.3859 174.989C40.6787 177.903 40.2426 181.376 41.18 184.612C41.76 186.613 54.0888 227.985 87.3285 255.794C43.7297 256.044 7.29655 279.921 5.54631 281.086C2.71626 282.972 0.785057 285.906 0.191755 289.221C-0.400063 292.536 0.396445 295.946 2.40032 298.67C3.64032 300.354 29.5973 335.08 70.4773 349.999C29.5973 364.918 3.64032 399.642 2.40032 401.327C0.394961 404.051 -0.401547 407.461 0.191755 410.776C0.785057 414.091 2.71774 417.025 5.54631 418.911C7.29506 420.076 43.7238 443.952 87.3211 444.205C54.0873 472.005 41.7585 513.384 41.1785 515.385C40.2411 518.621 40.6772 522.094 42.3844 525.007C44.0931 527.921 46.9276 530.029 50.2397 530.846C51.4456 531.144 66.6727 534.787 87.3686 534.787C101.841 534.787 118.986 532.988 135.88 527.034C114.29 564.359 117.054 607.397 117.204 609.473C117.446 612.83 119.058 615.947 121.675 618.111C123.956 619.997 126.829 621.018 129.779 621.018C130.212 621.018 130.648 620.996 131.083 620.952C133.183 620.737 176.677 615.955 210.235 588.533C202.907 630.877 220.452 670.382 221.314 672.282C222.707 675.354 225.304 677.738 228.514 678.889C229.909 679.391 231.369 679.639 232.825 679.639C234.717 679.639 236.603 679.22 238.339 678.388C240.237 677.477 279.443 658.33 301.463 621.249C309.28 663.508 339.47 694.721 340.938 696.216C343.313 698.635 346.584 700 349.998 700C353.414 700 356.683 698.633 359.059 696.216C360.526 694.721 390.715 663.511 398.533 621.254C420.543 658.331 459.76 677.479 461.661 678.388C463.394 679.22 465.28 679.638 467.172 679.638C468.629 679.638 470.09 679.389 471.486 678.888C474.695 677.736 477.293 675.352 478.685 672.279C479.546 670.379 497.081 630.873 489.758 588.532C523.316 615.953 566.814 620.736 568.915 620.952C569.351 620.996 569.785 621.018 570.219 621.018C573.169 621.018 576.043 619.997 578.323 618.111C580.941 615.947 582.555 612.83 582.795 609.473C582.945 607.397 585.71 564.36 564.118 527.035C581.012 532.99 598.156 534.789 612.629 534.787C633.322 534.787 648.555 531.142 649.76 530.846C653.072 530.027 655.909 527.921 657.616 525.005C659.324 522.091 659.758 518.617 658.821 515.381C658.241 513.38 645.9 471.999 612.671 444.206C656.265 443.953 692.704 420.076 694.454 418.911C697.283 417.025 699.216 414.091 699.809 410.776C700.401 407.461 699.604 404.051 697.6 401.327C696.359 399.642 670.401 364.917 629.512 349.999ZM349.997 545.606C240.537 545.606 151.485 457.855 151.485 349.999C151.485 242.142 240.538 154.391 349.997 154.391C459.458 154.391 548.51 242.142 548.51 349.999C548.51 457.855 459.458 545.606 349.997 545.606ZM605.889 330.715C595.619 332.502 584.522 332.327 572.82 330.269C571.68 317.657 569.461 305.35 566.248 293.433C576.5 287.568 586.864 283.664 597.153 281.873C624.888 277.058 652.383 287.314 667.786 294.784C655.9 307 633.619 325.899 605.889 330.715ZM629.494 191.016C622.615 206.467 608.292 231.686 583.765 245.641C574.72 250.787 564.225 254.363 552.513 256.368C547.093 245.031 540.721 234.219 533.498 224.033C541.117 215.028 549.524 207.842 558.597 202.677C583.001 188.801 612.43 189.181 629.494 191.016ZM557.458 106.41C556.357 123.247 551.653 151.769 533.456 173.136C526.698 181.057 518.047 187.974 507.723 193.802C498.769 185.023 489.065 176.986 478.718 169.787C482.751 158.767 488.154 149.184 494.888 141.27C512.999 120.001 540.788 110.438 557.458 106.41ZM413.701 105.016C423.326 78.9488 446.092 60.6107 460.36 51.2041C465.154 67.4551 470.627 95.9189 461.006 121.977C457.417 131.676 451.705 141.068 444.054 150.001C432.653 144.774 420.735 140.469 408.395 137.177C408.372 125.496 410.128 114.7 413.701 105.016ZM349.998 32.0373C360.144 45.6867 375.165 70.5829 375.165 98.3188C375.165 108.605 373.063 119.348 368.976 130.344C362.717 129.824 356.389 129.543 349.997 129.543C343.605 129.543 337.279 129.824 331.021 130.344C326.935 119.349 324.833 108.607 324.833 98.3203C324.835 70.5785 339.859 45.6809 349.998 32.0373ZM239.645 51.1661C253.892 60.523 276.607 78.7968 286.297 105.01C289.866 114.691 291.617 125.491 291.589 137.179C279.254 140.469 267.341 144.773 255.943 149.998C248.293 141.065 242.584 131.676 238.996 121.981C229.353 95.8941 234.847 67.4025 239.645 51.1661ZM205.106 141.264C211.84 149.181 217.245 158.764 221.28 169.784C210.931 176.981 201.228 185.02 192.272 193.799C181.948 187.971 173.298 181.057 166.548 173.143C148.452 151.892 143.714 123.298 142.578 106.419C159.26 110.456 187.014 120.019 205.106 141.264ZM70.5262 190.977C87.5451 189.119 116.873 188.729 141.396 202.675C150.469 207.842 158.876 215.027 166.497 224.032C159.274 234.217 152.902 245.03 147.48 256.368C135.77 254.362 125.27 250.785 116.219 245.642C91.8169 231.756 77.4412 206.45 70.5262 190.977ZM32.2137 294.785C47.6218 287.311 75.1169 277.054 102.84 281.871C113.133 283.664 123.496 287.567 133.747 293.432C130.534 305.348 128.315 317.659 127.175 330.27C115.47 332.328 104.37 332.501 94.0907 330.715C66.3716 325.899 44.0931 306.995 32.2137 294.785ZM94.0937 369.282C104.398 367.492 115.497 367.664 127.175 369.721C128.315 382.334 130.534 394.646 133.748 406.565C123.496 412.43 113.134 416.333 102.848 418.125C75.1139 422.939 47.6144 412.683 32.2137 405.213C44.0991 392.996 66.3761 374.097 94.0937 369.282ZM70.5425 508.984C77.4664 493.495 91.8406 468.219 116.228 454.351C125.276 449.196 135.772 445.618 147.479 443.621C152.9 454.962 159.272 465.774 166.496 475.961C158.87 484.963 150.465 492.145 141.399 497.306C117.01 511.182 87.6059 510.813 70.5425 508.984ZM142.58 593.567C143.716 576.684 148.453 548.102 166.546 526.855C173.297 518.934 181.944 512.016 192.264 506.186C201.222 514.97 210.93 523.01 221.28 530.21C217.245 541.23 211.842 550.813 205.111 558.726C187.014 579.979 159.253 589.537 142.58 593.567ZM286.298 594.977C276.663 621.045 253.9 639.379 239.635 648.781C234.838 632.535 229.362 604.077 238.994 578.014C242.578 568.321 248.284 558.929 255.93 549.989C267.33 555.217 279.248 559.523 291.588 562.814C291.617 574.504 289.866 585.302 286.298 594.977ZM350 667.955C339.854 654.302 324.835 629.401 324.835 601.664C324.835 591.373 326.935 580.635 331.02 569.651C337.278 570.172 343.605 570.452 349.997 570.452C356.391 570.452 362.719 570.172 368.979 569.651C373.064 580.635 375.165 591.373 375.165 601.664C375.165 629.403 360.141 654.307 350 667.955ZM460.351 648.819C446.104 639.468 423.384 621.2 413.704 594.981C410.128 585.297 408.373 574.499 408.397 562.817C420.736 559.527 432.654 555.22 444.056 549.993C451.724 558.941 457.435 568.33 461.005 578.01C470.634 604.097 465.145 632.584 460.351 648.819ZM494.893 558.733C488.156 550.815 482.751 541.228 478.718 530.208C489.068 523.009 498.775 514.969 507.732 506.185C518.054 512.015 526.701 518.932 533.45 526.854C551.546 548.104 556.285 576.692 557.419 593.567C540.74 589.536 512.984 579.979 494.893 558.733ZM629.454 508.984C612.383 510.812 582.982 511.179 558.602 497.307C549.532 492.144 541.124 484.96 533.499 475.958C540.722 465.771 547.093 454.96 552.514 443.621C564.214 445.619 574.708 449.196 583.765 454.358C608.151 468.224 622.53 493.503 629.454 508.984ZM597.157 418.126C586.864 416.333 576.5 412.429 566.246 406.562C569.461 394.645 571.678 382.334 572.819 369.721C584.493 367.663 595.591 367.492 605.891 369.282C633.62 374.098 655.903 393.002 667.784 405.212C652.376 412.686 624.879 422.939 597.157 418.126Z" fill="white" fill-opacity="0.2"/>
<path d="M349.997 172.199C250.503 172.199 169.559 251.959 169.559 349.997C169.559 448.035 250.503 527.794 349.997 527.794C449.491 527.794 530.433 448.034 530.433 349.997C530.435 251.959 449.491 172.199 349.997 172.199ZM492.987 318.307L478.65 332.435L464.323 318.318L478.66 304.19L492.987 318.307ZM396.507 350.003L382.17 364.132L367.833 350.004L382.17 335.875L396.507 350.003ZM400 318.307L414.327 304.19L428.664 318.318L414.337 332.435L400 318.307ZM414.337 367.572L428.664 381.689L414.327 395.817L400 381.7L414.337 367.572ZM432.166 350.003L446.493 335.886L460.82 350.003L446.493 364.12L432.166 350.003ZM446.493 300.747L432.156 286.62L446.493 272.492L460.83 286.62L446.493 300.747ZM414.327 269.052L399.99 254.924L414.327 240.797L428.664 254.924L414.327 269.052ZM396.497 286.62L382.17 300.737L367.833 286.609L382.16 272.492L396.497 286.62ZM364.34 318.307L350.003 332.435L335.665 318.307L350.003 304.179L364.34 318.307ZM267.838 350.003L253.509 364.121L239.183 350.004L253.511 335.886L267.838 350.003ZM271.341 318.316L285.678 304.189L300.005 318.306L285.668 332.433L271.341 318.316ZM285.668 367.572L300.007 381.701L285.68 395.818L271.341 381.689L285.668 367.572ZM303.497 350.003L317.834 335.875L332.171 350.004L317.834 364.132L303.497 350.003ZM317.835 300.738L303.509 286.621L317.846 272.492L332.172 286.609L317.835 300.738ZM285.678 269.052L271.34 254.923L285.678 240.795L300.015 254.923L285.678 269.052ZM267.848 286.62L253.511 300.748L239.172 286.62L253.509 272.491L267.848 286.62ZM235.681 318.316L221.353 332.435L207.014 318.306L221.342 304.187L235.681 318.316ZM194.774 349.997C194.774 347.185 194.857 344.39 195.01 341.615L203.524 350.004L195.011 358.392C194.859 355.612 194.774 352.813 194.774 349.997ZM207.017 381.701L221.354 367.572L235.681 381.689L221.344 395.818L207.017 381.701ZM253.509 399.259L267.848 413.387L253.511 427.515L239.172 413.386L253.509 399.259ZM285.678 430.955L300.015 445.083L285.678 459.212L271.341 445.083L285.678 430.955ZM303.507 413.386L317.834 399.269L332.171 413.396L317.844 427.515L303.507 413.386ZM335.665 381.7L350.003 367.572L364.34 381.7L350.003 395.828L335.665 381.7ZM382.17 399.269L396.497 413.386L382.16 427.513L367.833 413.396L382.17 399.269ZM414.327 430.955L428.664 445.083L414.327 459.21L399.99 445.083L414.327 430.955ZM432.156 413.386L446.493 399.257L460.83 413.385L446.493 427.512L432.156 413.386ZM464.323 381.689L478.65 367.572L492.987 381.7L478.66 395.817L464.323 381.689ZM505.219 349.997C505.219 352.81 505.136 355.605 504.984 358.38L496.482 350.003L504.985 341.625C505.136 344.398 505.219 347.188 505.219 349.997ZM478.66 269.05L464.323 254.923L468.257 251.047C472.678 256.171 476.769 261.58 480.486 267.251L478.66 269.05ZM446.494 237.355L432.157 223.227L433.986 221.425C439.741 225.088 445.231 229.119 450.429 233.477L446.494 237.355ZM396.495 223.227L382.158 237.355L367.831 223.238L382.169 209.11L396.495 223.227ZM364.329 254.923L350.003 269.04L335.676 254.923L350.003 240.804L364.329 254.923ZM317.846 237.355L303.507 223.226L317.834 209.109L332.171 223.238L317.846 237.355ZM267.848 223.227L253.509 237.355L249.57 233.473C254.77 229.115 260.26 225.084 266.015 221.421L267.848 223.227ZM235.681 254.923L221.344 269.052L219.512 267.247C223.229 261.576 227.32 256.165 231.741 251.042L235.681 254.923ZM221.344 430.955L235.682 445.084L231.749 448.96C227.326 443.836 223.235 438.425 219.518 432.756L221.344 430.955ZM253.511 462.652L267.848 476.781L266.024 478.579C260.269 474.918 254.779 470.887 249.577 466.528L253.511 462.652ZM303.507 476.78L317.844 462.652L332.171 476.769L317.834 490.897L303.507 476.78ZM335.674 445.083L350.001 430.964L364.328 445.083L350.001 459.2L335.674 445.083ZM382.158 462.652L396.495 476.78L382.169 490.897L367.831 476.769L382.158 462.652ZM432.156 476.78L446.493 462.652L450.421 466.522C445.22 470.881 439.731 474.912 433.976 478.573L432.156 476.78ZM464.325 445.083L478.662 430.955L480.483 432.75C476.766 438.421 472.675 443.83 468.254 448.954L464.325 445.083ZM358.515 197.279L350.001 205.668L341.487 197.278C344.305 197.127 347.141 197.045 349.997 197.045C352.856 197.045 355.695 197.127 358.515 197.279ZM341.499 502.716L350.001 494.339L358.502 502.715C355.685 502.865 352.85 502.947 349.997 502.947C347.146 502.949 344.313 502.867 341.499 502.716Z" fill="white" fill-opacity="0.2"/>
</svg>
